<?xml version='1.0' encoding='utf-8'?>
<svg xmlns="http://www.w3.org/2000/svg" width="1396px" height="997px" version="1.1" viewBox="-162 527 1396 997"> <g fill="#d5f3fe"> <path d="m-163.01 525.56c-0.18982 0-0.3717 0.0752-0.50577 0.20934-0.13413 0.13426-0.20944 0.31616-0.20944 0.50586l0.00168 998.45c0 0.3955 0.32031 0.7158 0.71527 0.7158l1398-0.0053c0.1897 0 0.3719-0.0757 0.5059-0.2098 0.134-0.1342 0.2097-0.3154 0.2097-0.5053l-2e-4 -998.45c0-0.395-0.3206-0.71545-0.7156-0.71545l-1398 0.00105z"/> </g> <g fill="#052a3a"> <path d="m173.15 746.02c-1.6467 0.60986-3.9032 0.73206-7.7454 0.4883-4.2082-0.30495-6.0379-0.1222-8.2944 0.67076-2.5616 0.91494-3.2325 0.91494-5.3671 0.24377-1.7077-0.54893-3.5373-0.67077-6.0379-0.36583-1.9517 0.244-4.3302 0.5487-5.3669 0.6709-2.8665 0.3658-7.6846 2.0735-10.673 3.781-3.2935 1.83-11.588 7.9286-11.588 8.5384 0 0.24402-0.97577 1.5246-2.1956 2.8056-2.6224 2.9274-3.5983 4.8181-5.4889 10.307-1.4028 4.1472-1.4028 4.574-0.79279 12.869 0.30493 4.7567 0.73175 10.124 0.85376 12.015 0.30493 4.6962 2.4396 11.649 4.94 16.284 1.7687 3.1716 2.0736 4.2081 1.7078 6.0988-0.24402 1.2196-0.60992 2.5004-0.85388 2.8664-0.2439 0.30506-0.79291 1.5858-1.1588 2.8056-0.42688 1.3417-1.2808 2.5004-2.1956 2.8662-0.85382 0.4269-1.5247 0.9761-1.5247 1.342 0 0.36606-1.2198 1.9518-2.6835 3.5372-1.4638 1.5854-3.8423 4.6959-5.306 6.8918-3.2934 4.879-9.2703 11.588-10.49 11.771-0.97583 0.12195-8.0505 8.904-12.503 15.491-8.9044 13.174-12.137 21.407-14.698 37.935-2.6224 16.711-2.3785 16.162-6.6478 15.918-1.7076-0.0611-3.6593 0.1829-4.3911 0.54873-0.73187 0.42713-4.9402 0.73181-10.246 0.79273-8.9044 0.12219-8.9654 0.12219-12.381 2.1347-2.3785 1.3417-4.2081 3.0495-5.7328 5.3058l-2.3176 3.2933 0.42694 5.5502c0.2439 3.0493 0.67084 6.2207 0.97577 7.0745 0.3659 0.8541 0.6098 2.4396 0.6098 3.5374 0 1.7686 1.5248 9.3312 3.0494 15.308 0.36603 1.342 1.0978 4.2082 1.5857 6.4038 1.6468 6.8918 1.9517 8.1728 2.6835 10.673 0.36597 1.3417 1.0369 4.5132 1.5248 7.0137 1.0978 5.4894 1.5856 7.5626 3.5982 15.552 1.7687 7.1968 3.8424 15.857 4.6962 20.127 0.30493 1.6468 0.85382 4.025 1.1587 5.184 0.30499 1.1584 1.1589 4.5742 1.8298 7.6233 0.73175 2.9887 1.5857 6.4651 1.8906 7.624 0.54895 1.9517 1.5856 6.6477 2.9884 13.112 0.85394 3.9642 3.6594 16.284 4.2693 18.602 0.54883 2.1345 0.91473 3.5983 2.7444 11.283 1.5247 6.343 2.0127 8.7216 3.0494 13.418 0.54889 2.3176 1.2197 5.3667 1.5857 6.7082 0.30499 1.3421 0.97583 4.3306 1.4638 6.7088 0.48785 2.3181 1.1587 5.2456 1.4636 6.404 1.4637 5.4891 2.5006 9.9412 3.4153 15.247 1.7688 9.5141 4.0254 12.929 9.9413 14.759l2.5615 0.793v8.0505 8.1116h5.7939c3.1715 0 5.7939 0.122 5.7939 0.1831 0 0.3659-1.8906 12.137-2.4395 15.369-0.6709 3.7207-2.1956 13.662-3.1105 19.821-0.3659 2.5005-0.91486 5.9157-1.2197 7.6238-0.79286 4.879-2.3176 14.881-2.9885 19.211-0.30493 2.1956-0.97577 6.7088-1.5247 10.063-0.54889 3.3545-1.2197 7.8682-1.5247 10.064-0.54889 4.2693-2.6834 19.15-3.6593 25.615-0.30487 2.1958-0.73188 5.1843-0.91486 6.7088-0.18292 1.5251-0.73181 5.4892-1.2197 8.8435-1.2808 8.4773-2.0737 14.515-2.7446 19.516-1.3417 10.917-2.0126 15.552-3.6593 24.396-0.30493 1.6467-0.6709 4.0862-0.85388 5.3669l-0.30499 2.2566h6.2819l6.2208 3e-4 1.0977-3.8423c0.60999-2.0738 1.3418-4.6353 1.6467-5.6111 0.73194-2.4395 3.0495-11.771 3.4155-13.722 0.18298-0.8537 0.67084-2.7443 1.0978-4.269 0.42694-1.5249 1.0978-3.9644 1.5247-5.4893 0.427-1.5249 1.7077-5.4887 2.8055-8.8432s3.1104-10.49 4.5132-15.857c2.3176-9.1485 4.3301-16.345 5.5499-19.822 0.2439-0.8535 0.9148-3.4763 1.4637-5.7937 0.54895-2.3787 1.7076-6.5869 2.5005-9.4534 0.7929-2.8662 1.7687-6.1596 2.0736-7.3186 0.30494-1.1589 1.1588-4.0861 1.8906-6.4038 0.73193-2.3784 1.5248-5.2448 1.7687-6.4038 0.73187-3.1714 6.343-24.7 9.5143-36.288 0.85394-3.3544 1.8297-7.0746 2.0737-8.2335 0.30499-1.159 0.97589-3.7815 1.5248-5.7942 1.4636-5.0625 2.1345-7.6238 2.6834-9.7583l0.42682-1.8298 28.604-0.1827c15.735-0.0613 28.787 0.0608 29.031 0.3047 0.24402 0.3047 0.18298 1.8299-0.12195 3.5371-2.3175 12.808-4.5741 45.315-6.6478 94.533-0.6709 16.589-1.7078 33.3-2.1346 36.288-0.18293 1.159-0.60993 5.8553-0.9148 10.368-1.3418 18.174-1.8296 24.213-2.1956 27.018l-0.36597 2.9277 5.672-0.1833 5.7329-0.1829 0.73187-3.6591c0.42694-2.0128 1.0369-5.0623 1.4028-6.7088 0.91491-4.5742 4.3912-21.59 4.879-24.396 0.30499-1.3421 0.97589-4.6353 1.5248-7.3189 1.4028-6.6477 1.9516-9.4531 2.9885-15.857 0.54889-3.0498 1.1588-6.709 1.5247-8.2334 0.48791-2.3179 1.7687-9.3316 4.9401-26.53 0.30499-1.7075 1.1588-6.77 1.8905-11.283 0.73188-4.5132 1.5248-9.3313 1.7687-10.673 0.85394-4.6352 3.0495-17.687 3.5984-21.346 1.0978-6.8918 2.5615-15.247 3.1104-17.687 0.30499-1.3415 0.97582-5.062 1.5247-8.2334 0.54895-3.1713 1.2198-6.7697 1.5857-7.9895 0.30505-1.2197 0.54901-2.8054 0.54901-3.5373 0-1.2808 0.18292-1.2808 9.3312-1.2808h9.3313l1.3416 7.7454c0.73205 4.3306 1.8908 10.246 2.5006 13.296 0.6709 2.9883 1.5248 6.8306 1.8907 8.5386 0.3659 1.6465 0.91473 4.1472 1.2198 5.489 0.30487 1.3418 0.97571 4.635 1.5247 7.3186 0.54883 2.6839 1.2196 5.9767 1.5246 7.3185 0.30499 1.3418 0.85382 4.0864 1.2197 6.0989 1.3418 6.5869 4.2692 19.273 6.1598 26.835 1.0979 4.147 1.6467 6.5256 2.6835 11.588 0.48797 2.6833 1.2199 5.8547 1.5248 7.0134 0.30505 1.1587 0.79284 3.3543 1.1588 4.8794 0.36603 1.5244 1.2808 5.6106 2.1346 9.1482 0.79284 3.5371 1.9516 8.5994 2.5615 11.283 0.5491 2.6834 1.5247 6.7698 2.0737 9.1484 0.60987 2.3177 1.2808 5.4891 1.5247 7.014 0.1831 1.5251 0.60993 3.5376 0.91492 4.5744 0.2439 0.9761 0.79291 3.4766 1.2198 5.4893 0.42683 2.0124 1.6466 6.9519 2.7444 10.977 1.0976 4.0251 2.1956 8.2331 2.4394 9.3311l0.427 1.9516h6.3428 6.4038l-0.3659-3.2326c-0.18293-1.7073-0.60987-4.94-0.91474-7.1355-0.30511-2.1956-0.85388-6.5866-1.2199-9.7582-0.3659-3.1714-0.91478-7.5625-1.2197-9.7583-0.30495-2.1953-0.73186-5.7329-0.91472-7.9285-0.1831-2.1953-0.60998-6.8305-0.97595-10.368-0.30487-3.5374-1.4028-15.186-2.4395-25.92-1.6467-17.686-2.2566-23.053-4.2694-36.593-1.3417-9.2093-2.6834-20.98-5.4278-47.571-0.36578-3.0495-0.85382-7.5014-1.2198-9.9416-1.0368-7.5623-2.0737-6.8306 9.4532-6.8306h10.063l0.06098-16.345c0-8.9649 0.24395-15.735 0.48785-15.064 0.305 0.6709 0.9759 3.6592 1.5248 6.7085 0.54883 2.9885 1.2197 6.8308 1.5857 8.5382 0.30486 1.6467 0.85389 5.3672 1.2198 8.2337 0.36591 2.8664 0.97577 6.5258 1.2808 8.2334 0.30492 1.6467 0.8538 5.3671 1.2197 8.2336 0.36598 2.8667 0.85388 6.8306 1.1588 8.843 0.30493 2.0125 0.97583 7.9287 1.5247 13.113 0.54894 5.1838 1.2198 11.771 1.5858 14.637 0.30485 2.8666 0.8538 8.0507 1.1587 11.588 0.30487 3.5368 0.85377 8.2941 1.2197 10.673 2.3177 15.796 2.8055 19.882 3.9643 31.714 0.54888 5.3669 1.2198 11.832 1.5246 14.332 2.8665 21.59 2.5006 19.821 4.2693 19.638 0.85382-0.061 2.9275-0.3049 4.5742-0.4877l3.1105-0.366 0.73188 2.9885c0.73181 2.8665 0.67083 3.2935-0.73188 6.4646-0.85382 1.8298-1.8296 5.2454-2.1346 7.5628-0.91485 6.7092-1.4637 18.724-1.0369 22.383l0.42694 3.4155 115.88-5e-4 -0.36591-1.4028c-1.8907-6.2207-2.9885-6.9529-19.943-12.991-8.0504-2.866-11.1-4.0857-17.504-7.0742-3.4764-1.586-6.4039-2.9278-6.5868-2.9278-0.18286 0-2.4395-1.3417-7.8675-4.696-2.8666-1.8296-9.3923-5.428-12.869-7.1965-3.3544-1.6468-3.7203-2.0735-2.9275-2.7444 1.0369-0.854 1.2198-2.6228 0.36603-4.1472-0.24402-0.5491-0.6709-2.6836-0.91492-4.6966l-0.36578-3.6591 3.1713-0.7928c4.4522-1.0366 5.489-2.1955 4.6961-5.3061-0.6709-2.6834-2.7445-14.21-3.5984-20.431-1.2807-9.2705-2.5615-17.443-2.8054-18.602-0.18298-0.6709-0.54913-2.8667-0.854-4.8794-0.36603-2.0124-1.0369-6.2817-1.5248-9.4531-1.1586-7.5628-1.9515-11.588-2.3784-13.113-0.36596-1.0369 0.06104-1.4028 2.9274-2.5005 2.0736-0.7927 3.5373-1.0979 3.9033-0.7322 0.36592 0.3662 1.5247 0.0613 3.0494-0.7314 2.8056-1.4638 4.8792-1.4027 13.478 0.4267 7.8675 1.6465 25.371 0.6709 36.959-2.1954 13.357-3.2327 24.274-7.8674 28.909-12.137 2.3176-2.2563 2.6225-2.7441 2.2566-4.4519-0.60987-3.1103-2.5615-5.3061-5.123-5.7939-1.2198-0.1831-3.3544-0.7317-4.6961-1.2197-2.4396-0.854-7.9896-2.3787-11.893-3.2937-1.1588-0.3047-3.9033-0.9148-6.0989-1.4029-5.0011-1.1584-16.162-4.5129-18.601-5.5493-0.97589-0.4267-3.4764-1.4639-5.4891-2.1955-3.7814-1.4639-19.638-10.734-21.407-12.504-1.4638-1.4025-0.79285-2.2566 3.7202-4.5737 5.55-2.8664 6.2209-3.9641 4.9402-7.9895-0.54889-1.6468-1.7078-4.6354-2.5615-6.5258-0.91493-1.8906-1.8297-4.0251-2.0736-4.6962-1.2198-2.9883-3.7204-9.6363-5.855-15.247-1.2198-3.3545-3.0493-7.7461-3.964-9.758-0.9148-2.0132-2.2566-5.062-2.9274-6.7088-0.73199-1.708-1.5858-3.5986-1.8909-4.2692-0.30488-0.6709-1.9517-4.8184-3.6592-9.1487-1.7078-4.3914-3.4764-8.7825-3.9643-9.7586-1.5858-3.5373-5.1231-12.258-7.6236-18.906-1.4028-3.7203-3.1715-8.1119-3.9642-9.7581-0.73194-1.7082-2.2567-5.0625-3.2935-7.5019-3.1714-7.1358-9.9412-19.09-11.161-19.517-0.244-0.1219-0.4879-0.6099-0.4879-1.0367 0-1.0366-6.1599-6.6476-9.3924-8.5382-7.9285-4.6354-20.797-5.7939-30.555-2.7444-0.97571 0.36596-4.2692 1.3418-7.3186 2.1956-7.9285 2.2563-14.027 4.3911-19.089 6.7695-2.5007 1.0976-4.8182 2.0124-5.2451 2.0124-0.3659 0-0.9757 0.2441-1.3417 0.488-0.30486 0.3049-1.7686 0.915-3.2934 1.342-1.5248 0.4268-6.0378 2.3782-10.063 4.2688-4.0252 1.9517-8.4164 3.9644-9.7582 4.5745-1.3417 0.5488-3.0493 1.3418-3.7202 1.6467-1.4638 0.6709-3.2324-0.122-7.4407-3.4763-2.8664-2.3174-5.8549-3.3545-9.5752-3.3545-5.2451 0-15.613-1.4025-22.566-3.11-4.0252-0.976-8.5384-1.9521-10.063-2.135-5.001-0.7317-4.9401-1.2197 0.30495-3.5372 2.6835-1.2195 7.0138-3.2932 9.5753-4.635l4.6962-2.3787 12.381 1.1588c11.161 1.0369 34.825 2.8662 40.984 3.2324 2.3176 0.12185 2.4395 0 4.8791-3.9644l2.5006-4.0863 4.2082-0.06117c4.0863 0 4.5132-0.18283 18.48-7.0134l14.332-6.9528 2.9275 1.4638 2.9275 1.4636 3.8421-2.9276c8.2334-6.1598 10.063-7.1965 13.722-7.6843 5.55-0.6709 14.149-4.6962 18.297-8.5388 0.36584-0.30466 2.3785-2.0733 4.4522-3.903 2.0126-1.7686 3.7203-3.5374 3.7203-3.842 0-1.7078 6.8306-10.917 9.819-13.174 3.9034-2.9883 52.694-39.399 58.671-43.729 3.2934-2.3786 3.9643-3.1714 3.2934-3.6592-0.48791-0.30517-4.696-1.7075-9.4532-2.9888-6.9526-1.9512-8.4774-2.5613-8.1724-3.354 0.18292-0.54896 0.48785-1.0978 0.67083-1.2805 0.18299-0.18334 1.0368-1.5857 1.8295-3.1719 1.4027-2.6226 1.4637-2.8663 0.48792-4.3301-0.54888-0.85426-2.2566-2.1346-3.7813-2.8667-4.6351-2.2566-8.9654-0.79273-15.247 5.1233-1.2198 1.1586-2.5616 2.0122-2.9276 1.8906-4.1472-1.3417-13.234-3.9642-13.783-3.9642-0.36592 0-12.808 9.2093-27.506 20.431-14.759 11.222-27.018 20.431-27.201 20.431-0.24396 0 0-0.42674 0.42694-1.037 0.67084-0.7314 0.85382-3.2323 0.85382-10.002v-9.0871h4.4522c4.94 0 6.8308-0.6709 6.8308-2.44 0-0.85364-1.2198-1.7685-4.5743-3.354-2.5004-1.1586-4.757-2.1344-5.001-2.1344-0.305 0-2.0126-1.2201-3.8423-2.745-1.8296-1.4637-4.5132-3.1102-6.0379-3.6592-3.1714-1.037-10.551-1.2197-14.332-0.24402-2.0736 0.48806-3.3544 0.42686-6.2209-0.36584-5.9768-1.7081-8.2335-2.1959-13.966-3.1107-2.9885-0.4878-7.0138-1.1587-8.8434-1.4636-10.795-1.8906-12.198-1.5857-12.198 2.7446 1.2e-4 3.0496 0.60998 3.6594 4.2693 4.2084 1.5247 0.18284 4.1472 0.60984 5.7939 0.91494 1.7077 0.30466 5.0012 0.8536 7.3186 1.2807 2.3786 0.36546 5.7329 0.97556 7.5015 1.2803l3.2324 0.67115-1.0368 1.5857c-0.60993 0.91465-1.4028 2.0126-1.8297 2.4394-0.42694 0.42676-2.3786 3.1716-4.2692 6.099-6.2208 9.3926-13.783 19.089-15.369 19.699-0.79284 0.3049-2.2566 1.1587-3.2324 1.8294-0.97589 0.6709-2.0736 1.1592-2.5006 1.098-0.42687-0.06104-1.3417 0.06113-2.0126 0.36583-2.3175 0.8539-26.835 10.795-28.665 11.588-0.97576 0.42674-2.5006 0.9758-3.3544 1.2195-0.85382 0.24403-2.7444 0.97607-4.2692 1.7079-1.5247 0.6709-4.3912 1.8297-6.3428 2.5612l-3.5984 1.3418-5.5499-1.4021c-3.0494-0.79294-7.1967-1.7079-9.2093-2.0737-2.0126-0.366-5.0621-0.97583-6.7698-1.3419l-3.1715-0.6707-0.67084-5.3061c-0.36597-2.8667-0.6709-7.1967-0.6709-9.5755 0-6.0987-11.161-80.383-12.503-83.188-1.0368-2.1957-1.0368-2.257 0.42694-4.2694 2.2565-3.0496 3.5373-5.733 3.5373-7.6848 0.06104-0.9147 0.60986-2.3787 1.2808-3.1714 1.1588-1.403 1.4027-1.4639 3.1714-0.7318 8.4774 3.5373 18.723 4.5743 21.895 2.1953 0.91485-0.6708 2.1346-2.1953 2.6835-3.3542 0.91486-1.8294 0.91486-2.5612 0.30501-5.672-0.42694-1.9513-0.85388-3.9032-1.0368-4.3302-0.18304-0.42687 0.42688-1.0976 1.2807-1.4636 1.5858-0.7318 1.5858-0.7318 0.48792-2.5615-1.0368-1.7688-1.0368-1.8297 0.24396-2.7443 1.2199-0.85425 1.2199-1.037 0.42694-2.7446-0.54889-0.97586-0.85388-2.8056-0.73182-4.0863 0.18293-2.1956 0.30488-2.2565 3.7203-3.2932 4.269-1.2811 5.3058-2.0742 5.3058-4.0257 6e-5 -1.5246-0.06092-1.7074-5.9156-10.734l-3.8424-5.9157 1.2808-1.7688c1.2198-1.647 1.2198-1.8297 0.24401-5.001-0.54889-1.83-1.2198-5.3672-1.5248-7.9287l-0.60986-4.5742 3.6594-7.1968c5.7328-11.283 5.1229-14.211-4.0253-18.663-2.9884-1.464-6.2208-3.2934-7.1357-4.0862-1.1588-0.9149-2.5615-1.4029-4.0862-1.4029-1.2197 0-2.6225-0.3659-2.9885-0.85366-1.0368-1.2198-4.4522-1.4641-7.1968-0.48804zm221.21 158.51c0 0.793-4.696 4.4524-5.611 4.4524-0.42687-0.06065 0.427-1.1586 1.8906-2.4398 2.5616-2.3175 3.7203-2.9882 3.7203-2.0126zm-89.105 43.729c-0.12194 0.12194-9.6361 7.3796-21.163 16.162-17.687 13.418-21.163 15.857-22.444 15.552-1.4028-0.36597-1.4028-0.4274 0.9757-2.1348 1.3417-0.97593 2.4396-2.1346 2.4396-2.5614 0-1.098 2.3786-3.2327 4.2691-3.7818 0.85388-0.2438 5.1841-3.0491 9.6362-6.1598 4.4522-3.1709 8.3556-5.7327 8.7215-5.7327 0.305 0 0.5489-0.3049 0.5489-0.60985 0-0.36621 0.36596-0.60998 0.79278-0.60998 0.36602 0 1.7077-0.85387 2.8665-1.9516 1.8296-1.5857 6.2818-4.5741 11.283-7.6236 1.1588-0.6708 2.6835-1.0977 2.0735-0.54874z"/> <path d="m963.99 830.37c-3.537 0.36584-10.612 2.4396-13.539 3.9643-2.5006 1.2808-5.916 5.0622-7.4409 8.1722-1.6466 3.4764-1.7686 11.039-0.24376 12.563 0.85375 0.85416 0.6709 1.342-1.7075 5.6111-1.4641 2.5618-2.5617 5.0623-2.3787 5.6111 1.0977 3.9034 1.0977 4.0253-1.7687 6.5256-1.5248 1.3417-4.3912 3.2935-6.3429 4.2084-1.8906 0.97584-3.6594 2.0126-3.9032 2.3784-0.97586 1.3417-0.3661 2.9274 2.2566 5.7329 2.9883 3.2322 3.4151 4.879 1.5248 6.7697-0.91494 0.9149-1.0979 1.5248-0.67089 2.2566 0.30468 0.67076 0.30468 1.5249-0.06115 2.3788-0.54896 1.1587-0.36586 1.7076 0.97606 3.2933 1.9513 2.3175 1.9513 2.9884 0.30469 5.7938-1.1588 1.9518-1.2195 2.501-0.67075 4.5136 1.2807 4.2079 2.8664 5.0617 10.612 5.7329 3.7814 0.3049 7.1968 0.79295 7.6236 1.1587 0.97545 0.79294 5.0008 11.344 6.0378 15.796 1.0367 4.33 0.6096 7.5623-1.4029 11.954-1.5857 3.4766-5.0617 6.343-14.82 12.32-5.428 3.3545-12.015 7.6236-21.163 13.723-6.8308 4.635-14.027 11.832-16.162 16.223-0.91479 1.8295-3.1717 6.5868-5.062 10.551-1.8297 3.9646-4.2692 8.5387-5.3062 10.246l-1.8904 3.0493-1.2808-2.3175c-1.3416-2.2566-11.771-18.784-12.686-20.004-10.246-13.539-23.237-33.727-24.334-37.63-0.36585-1.4636-0.9148-4.1473-1.2199-5.977-0.85388-5.8548-2.3174-11.953-3.5375-14.942-1.4025-3.4154-1.8904-5.9157-1.8904-9.6364 0-5.3667-0.8538-7.1355-3.4155-7.1355-4.5131 0-7.0746 6.8308-5.8548 15.491 0.4268 2.744 0.73183 5.3058 0.73183 5.7327 0 0.85386-2.8666 1.0367-3.1715 0.1831-0.0609-0.3048-5.0011-2.8667-10.856-5.733-14.637-7.0746-16.284-7.7454-20.248-8.7822-3.0493-0.7928-3.6592-0.7928-5.3058 0.12185-1.3419 0.6709-1.891 1.403-1.891 2.5008 0 1.4635 0.91494 3.8423 1.7686 4.5128 0.6711 0.5492 3.7207 4.7574 3.7207 5.1842 0 0.8539 12.258 13.6 15.857 16.467 2.8052 2.2563 10.368 7.6234 10.673 7.6234 0.18284 0 0.91494 0.48803 1.5245 1.0976 0.67114 0.61025 2.4398 1.7686 3.9646 2.5008 3.8423 1.9514 6.2819 4.147 7.3186 6.5869 0.4878 1.2195 2.7448 7.9285 4.9402 14.942 2.1956 7.0137 4.1472 13.174 4.3302 13.661 0.24376 0.6101-16.528-11.405-21.163-15.186-6.2209-5.062-7.9896-6.5871-10.307-8.6608-1.4635-1.3414-4.0862-3.9027-5.7938-5.7326-7.6847-8.1724-11.405-11.1-17.443-13.417-1.1588-0.48803-2.9274-1.1589-3.9641-1.5857-1.647-0.67114-7.8066-3.1108-10.978-4.3304-0.67078-0.244-2.3786-0.793-3.7812-1.1588-2.2566-0.61025-2.7446-0.61025-3.5374 0.3047-0.4878 0.5489-0.9148 1.5859-0.9148 2.2567 0 1.6468 3.5985 4.7573 7.3186 6.4042 4.2082 1.8294 4.4522 2.9272 0.60985 2.9272-1.6466 0-4.2084-0.24377-5.611-0.61-1.4636-0.30467-4.9402-0.97557-7.8064-1.5245-2.8667-0.54897-5.9769-1.22-7.0137-1.5248-0.97593-0.3052-3.7815-0.91504-6.1599-1.3422-3.9031-0.6095-4.574-0.6095-5.9766 0.36636-1.4032 0.8536-1.6469 1.4028-1.4641 3.2934 0.18311 2.0735 0.54917 2.5004 5.9771 6.0988 3.1711 2.1344 7.3186 4.6352 9.1483 5.6722 3.6589 2.0124 13.051 5.2444 19.821 6.8918 2.3787 0.54885 5.2452 1.2802 6.4039 1.5856 1.1586 0.3047 4.2084 1.0368 6.7086 1.5855 9.6972 2.0738 9.6972 2.0128 14.82 7.2578 5.0011 5.0618 5.855 5.9767 15.125 17.077 10.795 12.929 14.881 17.626 21.346 24.395 5.611 5.9159 10.551 11.405 13.173 14.637 1.0372 1.3418 4.2696 4.2085 7.1361 6.4043 2.8667 2.1953 5.1233 4.208 5.0011 4.574-0.30496 1.1589-6.8306 5.1228-13.783 8.3557l-7.0138 3.2319-7.3188-0.122c-4.0252-0.0611-8.7213 0.122-10.49 0.4877l-3.1716 0.6102-5.3668-4.1472c-2.9276-2.3174-6.8915-5.3062-8.7213-6.5867-1.8297-1.3416-3.4763-2.5613-3.6592-2.7447-0.18298-0.2441-2.5008-1.8296-5.1843-3.6589-2.6836-1.7688-5.0008-3.4155-5.184-3.5986-0.67075-0.8535-9.1484-6.7698-9.7583-6.7698-0.30505 0-0.60998-0.2441-0.60998-0.488 0-0.2442-0.91477-0.9759-1.9513-1.6468-1.0979-0.6098-2.1349-1.2807-2.3178-1.4636-0.18284-0.1831-0.7318-0.6709-1.2805-0.9758-0.5492-0.3657-4.5133-2.9273-8.8434-5.7936-4.3301-2.8664-9.3922-6.0381-11.222-7.0137-1.8295-0.97558-4.147-2.1958-5.1837-2.7444-3.7206-1.9518-10.49-4.2084-15.003-4.9402-10.124-1.6469-21.041 2.5613-33.848 13.052-0.60998 0.5488-2.8055 2.2566-4.8184 3.9029-2.0126 1.5857-4.147 3.3545-4.818 3.8426-1.1589 0.915-7.3187 6.2204-31.775 27.079-7.3797 6.3425-16.955 14.82-21.346 18.967-4.3304 4.0862-12.381 11.344-17.809 16.101-9.3923 8.1721-11.71 10.612-12.564 13.051-0.24402 0.5491-0.91477 1.2198-1.4638 1.4639-0.6097 0.2442-2.3171 1.281-3.8421 2.3789-4.879 3.4153-9.5141 4.8792-20.126 6.3428-2.8662 0.366-6.1596 0.9758-7.3795 1.2805-1.2196 0.3052-3.5371 0.5491-5.1837 0.5491-1.6468 2e-4 -4.757 0.3054-6.9526 0.6101-4.2084 0.6709-16.955 1.7075-27.445 2.3787l-6.4038 0.3659 0.12196 2.8665c0.06114 1.8293 0.54894 3.5373 1.4028 4.6958 1.3417 1.9519 9.2093 7.6238 14.271 10.368l2.9274 1.5857-23.054 0.305c-26.591 0.3659-25.493 0.1223-30.799 5.977-3.8425 4.2689-4.5743 6.0985-5.7332 13.844-1.2808 8.5386 0.36609 20.371 3.4763 25.005 1.5859 2.3787 6.6478 7.0137 7.6848 7.0137 0.36584 0 0.73168 0.2439 0.73168 0.5488 0 0.2441 0.91492 0.7322 2.0127 1.0369 1.7686 0.5488 1.9518 0.854 2.1345 3.1716l0.18288 2.5615 3.1105-2e-4 3.0494 2e-4 -0.36585 2.2566c-0.18298 1.2808-0.73181 5.7327-1.2806 9.9409-1.0978 9.2702-1.8908 14.637-2.7447 18.296-1.0368 4.2691-2.6225 17.504-4.2694 35.374-0.73168 8.0507-2.3172 22.871-3.0492 28.664-0.61012 4.5745-1.4028 11.771-2.7445 24.396-0.79296 8.1118-1.2198 11.222-2.5004 19.638l-0.427 2.9275h6.8306c5.6722 0 6.7699-0.1221 6.7699-0.9148 0-0.549 0.54883-2.6833 1.1587-4.757 0.6708-2.0735 1.7688-6.282 2.5005-9.2702 0.6709-3.0495 1.7079-7.1355 2.1959-9.1479 0.4878-2.0125 1.1586-4.7571 1.4635-6.0989 0.24366-1.3421 1.4638-6.1599 2.6224-10.674 2.0127-7.6233 3.0496-11.527 5.611-21.041 0.54874-2.0127 1.5246-5.8549 2.1346-8.5385 0.60985-2.6836 1.586-6.5257 2.1348-8.5381 0.54885-2.0127 1.4025-5.4895 1.8296-7.7459 0.4878-2.2566 1.2199-5.7942 1.7687-7.9284 0.48765-2.1348 1.4636-6.8919 2.1957-10.551 0.79274-3.72 1.6465-7.3797 1.9516-8.2334 0.30483-0.8538 0.9755-3.4766 1.4025-5.7942 0.488-2.3784 1.1589-5.4885 1.5248-7.0137 0.36597-1.5246 1.0369-5.4278 1.5248-8.7821 0.4269-3.2934 0.97584-6.0986 1.0977-6.2207 0.12219-0.1221 11.344-0.1831 24.944-0.1221l24.7 0.1832-1.098 6.404c-0.60962 3.5373-1.2805 9.1478-1.4636 12.502-0.4269 8.4165-1.4027 19.212-4.94 55.5-0.48805 5.0013-1.159 12.015-1.4638 15.552-1.4028 16.162-1.8905 21.285-2.4395 24.396-0.91493 5.2452-1.7076 13.723-2.0126 20.553l-0.30516 6.282h8.0506 8.1116l0.6709-3.781c0.6708-3.9036 1.0368-5.6114 2.8665-14.211 1.2198-5.7939 1.7077-7.9282 2.9273-12.807 0.54883-2.0129 1.5244-6.404 2.1953-9.7585 1.159-5.7332 2.5616-11.954 3.7206-16.772 0.30467-1.1587 0.85387-3.3545 1.2196-4.8792 0.36606-1.5249 1.037-4.9402 1.525-7.6235 0.42674-2.6836 1.647-9.1485 2.6225-14.332 1.8297-9.2095 2.0738-10.429 3.1712-15.552 0.4878-2.1958 1.0367-5.123 3.0493-16.345 1.0979-6.1599 1.7687-9.7578 2.6836-14.454 0.54897-2.5005 1.0979-5.428 1.2808-6.404 0.24414-1.0364 0.48815-2.4395 0.671-3.2322l0.24403-1.3416h118.62l118.56 3e-4 0.3658 2.2566c0.1834 1.2807 0.61026 3.4148 0.9152 4.7568 0.3047 1.3416 0.9756 4.7573 1.5245 7.6234 0.97608 5.5501 1.8297 9.8193 2.7444 13.723 0.366 1.3418 0.9149 4.2082 1.2808 6.4035 0.732 4.2693 1.2807 7.1355 2.3177 11.893 2.3173 10.734 3.8421 18.358 4.6962 22.871 2.0123 11.466 4.8785 25.92 5.9766 30.006 0.48791 1.8906 1.2198 5.0012 1.5857 7.0137 0.30496 1.9519 0.85386 4.7573 1.2198 6.282 0.732 3.1713 1.5857 7.6235 2.7446 13.722 0.4269 2.3172 1.2198 5.9156 1.7076 7.9283 0.54896 2.0125 1.0979 4.3914 1.2807 5.3062l0.3662 1.7075 5.9158 2e-4h5.855l-0.427-4.6958c-1.0367-13.174-2.3177-32.263-2.8055-42.875-0.30493-6.5259-0.97583-16.711-1.4636-22.566-1.4635-16.528-2.1956-24.701-2.8666-32.02-0.3047-3.7202-0.8539-10.063-1.1588-14.088-0.6709-9.0874-1.7075-19.882-2.1956-22.992l-0.3658-2.2566 26.957 0.1221 26.957 0.1829 1.4028 5.1838c1.8905 7.2578 5.3668 18.418 8.5989 27.75 1.5248 4.3296 3.7206 11.222 4.9404 15.247 1.1588 4.0257 3.1105 10.49 4.269 14.333 1.1592 3.8422 2.3787 7.8064 2.6836 8.8437 0.3051 0.9756 2.0126 7.7454 3.842 14.942 1.8297 7.1968 3.9034 15.186 4.6355 17.687 0.73157 2.5002 1.5854 5.6718 1.8904 7.0136 0.36595 1.3418 1.5248 5.1841 2.6225 8.5384 1.7078 5.2448 3.4154 10.673 5.9769 19.638l0.60986 2.0124h5.916 5.9159l-0.48779-4.1474c-0.30495-2.2564-0.73195-5.8545-1.098-8.0501-0.3048-2.1959-0.85374-7.014-1.2196-10.673-1.0371-10.429-1.6471-14.576-3.0497-21.651-0.36584-1.8294-1.0367-6.7696-1.5248-10.978-0.48806-4.2085-1.1588-9.5752-1.5248-11.893-0.9146-5.7332-1.6464-11.1-2.3784-17.686-0.60962-5.2452-1.4636-10.124-2.5006-14.028-0.30469-1.0366-0.97545-4.8787-1.5244-8.5381-1.2807-8.4776-3.7204-20.554-5.306-26.53-0.6709-2.5005-1.4028-5.123-1.5857-5.7939-0.18285-0.6709-0.6096-1.5857-0.9758-2.0735-0.36586-0.488-0.7321-4.3911-0.8539-9.3315-0.18286-6.9529-0.4269-8.4163-1.1589-8.4163-0.73166 0-0.67076-0.3662 0.3053-2.0127 1.3417-2.1956 7.6842-18.846 10.063-26.347 0.854-2.6836 2.5006-6.9525 3.5985-9.4535 1.9516-4.208 3.0493-7.3794 4.8179-13.722 1.2807-4.5129 2.5008-7.9284 5.0011-13.722 3.8426-9.0872 10.368-27.994 12.747-36.898 0.36596-1.3418 0.85403-2.9885 1.098-3.6592 1.0976-2.8056 5.0011-14.577 7.3186-22.261 1.4026-4.5132 3.0494-9.6362 3.659-11.283 0.6709-1.7078 2.3176-6.6482 3.7204-10.978 4.5744-14.454 10.917-33.544 11.405-34.458 0.3047-0.4883 1.9514-5.4282 3.7202-10.978 1.7688-5.5504 3.7202-11.344 4.3301-12.93 0.6099-1.5859 1.6467-5.2455 2.1956-8.1117 0.9758-4.4521 0.9758-5.7938 0.3659-9.5754-0.427-2.4393-1.2197-5.7938-1.8296-7.4404-2.1347-6.1598-10.246-12.442-20.675-16.04-2.0124-0.67087-3.2326-1.4639-3.2326-2.0126 0-0.48804-0.7315-3.1105-1.6463-5.7941-1.5248-4.5738-1.647-5.489-1.5857-15.552 0.0609-5.855 0.4879-14.149 1.0367-18.419 1.2807-10.124 1.281-27.384 0.0609-32.202-0.97556-3.842-4.2689-10.49-6.5256-13.235-7.0746-8.5992-15.43-13.6-26.164-15.613-5.3668-1.037-21.041-1.5863-26.774-0.97604zm-11.527 254.99c-0.793 2.4395-2.8662 8.843-4.6959 14.21-1.7688 5.367-3.6594 11.283-4.1475 13.113-3.7202 13.844-4.5741 17.077-4.9399 19.333-0.54907 3.2935-2.4397 7.3189-3.8423 8.0506-2.3787 1.2807-19.272 3.1106-28.482 3.1106h-7.1356l2.0125-1.9517c1.159-1.0371 4.1472-3.4155 6.6479-5.2449 5.7938-4.3303 9.8192-8.3554 17.381-17.504 3.3545-4.0252 6.892-8.1721 7.8067-9.2092 3.2936-3.6592 9.941-12.808 15.064-20.736 2.8662-4.3909 5.3057-7.8679 5.4278-7.8066 0.12185 0.1216-0.36585 2.1953-1.0976 4.6352zm-257.19 34.58c0.3049 0.4881 6.3429 2.5005 23.541 7.7454 3.8423 1.2197 8.5385 2.6838 10.368 3.2935 6.0987 1.9516 13.662 4.2082 17.991 5.2451 4.0254 0.9761 23.664 6.4043 23.908 6.5874 0.48779 0.3657-104.23 0.2434-105.88-0.1221l-2.0735-0.4272 1.5857-1.0977c0.8536-0.5488 2.1954-1.647 2.9886-2.4397 0.79274-0.793 2.3173-1.9514 3.4152-2.5615 1.0367-0.6709 1.9515-1.4028 1.9515-1.6467 0-0.2442 0.366-0.4878 0.793-0.4878 0.36595 0 2.3175-1.3418 4.2082-2.9275 1.8906-1.5857 4.3913-3.4763 5.4889-4.2691 1.0979-0.7319 3.7813-2.7448 5.9769-4.3918 3.9641-2.9883 5.123-3.4758 5.7329-2.5003z"/> </g> <g fill="#052a3a" fill-opacity=".69412"> <path d="m1092.8 1341.9-4.9712 0.3682q-15.711 0.5063-58.32 0.9599-59.145 0.5555-79.043 0.6509-31.391 0.2071-69.507 0.4009-76.759 0.3889-165.63 0.6389-44.437 0.125-91.904 0.2151-21.84 0.0671-149.21 0.1929-99.273 0.0488-180.88-0.0562-40.803-0.0525-77.188-0.1438l-35.281-0.1006q-34.177-0.1106-63.937-0.2595-118.94-0.6015-112.18-1.5996 5.2084-0.5183 42.352-0.9851 17.942-0.2336 42.609-0.4536 8.1306-0.1184 89.131-0.6316 93.032-0.4905 116.22-0.5513 41.409-0.1594 85.846-0.2849 88.875-0.2497 189.87-0.3613 104.46-0.1067 190.22-0.0334 43.011 0.0334 81.605 0.1052l37.49 0.0818q36.386 0.091 68.354 0.2209 64.803 0.2625 101.55 0.6416 40.517 0.3931 42.805 0.9846"/> </g> </svg>