<?xml version='1.0' encoding='utf-8'?>
<svg xmlns="http://www.w3.org/2000/svg" width="1434px" height="1026px" version="1.1" viewBox="-177 541 1434 1026"> <g fill="#d5f3fe"> <path d="m-177 540.44c-0.14944 0-0.29275 0.05933-0.39841 0.165-0.10567 0.10564-0.16503 0.249-0.16503 0.3984l0.00101 1026c0 0.3112 0.25226 0.5635 0.56343 0.5635l1434 1e-3c0.1494 0 0.2927-0.0594 0.3984-0.1651s0.1651-0.249 0.1651-0.3984l-1e-3 -1026c0-0.31116-0.2523-0.5634-0.5635-0.5634l-1434-1e-3z"/> </g> <g fill="#152c35"> <g> <path d="m250.35 708.94v1e-3 8.5e-4 0.00185c-16.198 0.8492-23.353 3.4483-34.954 12.176-14.949 11.246-28.131 30.205-31.422 45.062-0.9714 4.3851-1.3668 12.423-0.9743 22.532 0.58172 14.981 1.0107 16.551 6.8204 33.98 3.3248 9.9745 7.1358 21.659 8.2818 25.941 1.1683 4.3659 3.3948 9.1487 5.237 11.083 3.0296 3.1814 3.2146 4.1435 2.8012 12.058-0.43905 8.4061-0.46977 8.5564-5.2371 11.205-6.1941 3.4411-8.1198 6.4601-9.2562 14.615-0.93427 6.7042-1.0181 6.6321-10.109 12.666-5.038 3.3441-19.863 11.793-32.884 18.755-36.183 19.345-48.385 26.758-56.998 34.833-8.925 8.3672-21.692 26.057-27.038 37.511-4.0325 8.6409-9.9482 33.622-21.801 91.708-4.1021 20.103-9.3654 45.552-11.692 56.633-2.3018 10.963-5.5951 31.789-7.3073 46.281-1.698 14.372-3.6134 29.949-4.2627 34.71-1.5431 11.316 0.27395 30.563 4.9932 52.979 2.5884 12.294 4.0361 23.383 4.7499 36.537 0.9913 18.268 3.659 31.176 9.9869 48.107 2.6848 7.1836 11.059 23.28 14.98 28.742 2.8985 4.0371 4.5999 8.5315 6.455 17.172 2.773 12.916 8.1261 27.303 13.031 35.076 3.0111 4.7714 3.1195 5.9689 3.5321 24.115 0.44022 19.365 2.0646 29.84 6.5769 42.869 5.2312 15.105 10.718 21.923 17.416 21.923 1.8268 0 4.8735 1.3374 6.8201 2.9236 4.6302 3.7727 11.205 5.6018 11.205 5.6018 3.4327 0 3.1478-1.9319 3.1477 20.234l267.68 0.1059c2.3742-101.29 0.51996-138.72 0.51996-138.72-3.9888-56.269-6.1502-71.882-12.301-86.106-1.6442-3.8023-3.6538-11.813-4.3844-17.781l-1.4613-10.961 4.3843-6.5769c4.3844-6.4553 4.3844-6.4553 4.3844-19.974 0-7.4292-0.83493-24.238-1.9486-37.39-1.444-17.052-1.8379-31.666-1.3397-51.761 0.59781-24.115 3.0832-66.103 4.019-67.351 0.1633-0.2178 4.9931 2.0705 10.718 5.2366l10.474 5.7243 7e-5 55.293 1.8e-4 55.294 724.66 0.0012-5e-4 -271.59v-271.59l-210.94-0.12238c-116.07-3.6e-4 -279.02-0.24446-362.08-0.24436l-151.02-0.2442 6e-5 144.08c6e-5 79.164-0.3653 143.96-0.85248 143.96-0.48724 0-6.602-6.5541-13.64-14.493-24.384-27.503-30.46-31.373-60.409-38.973-10.365-2.6304-20.325-5.3952-22.166-6.0899-4.6145-1.7414-11.936-14.614-11.936-21.07 0-4.0188 0.3544-4.7204 1.9487-4.1407 1.0857 0.3947 7.0631 0.7719 13.275 0.85217 12.666 0.16363 18.229-1.736 22.653-7.3071 2.1528-2.7109 2.4469-4.2637 1.8268-10.961-0.59778-6.4558-0.19098-8.3727 2.0705-12.3 2.3672-4.1112 2.4492-5.2419 1.2178-8.5255-1.6919-4.5115-0.97443-6.9422 2.0706-7.9162 3.0449-0.974 4.1081-4.6407 3.1668-10.961-0.76392-5.1293-0.73676-5.1428 3.1664-5.9675 4.744-1.0024 9.4999-5.1156 9.4999-8.5259 3e-5 -1.4614-3.532-9.743-8.0382-18.39l-8.0384-15.955 2.6794-4.5066 2.6796-4.506-2.6796-11.205c-1.4615-6.2114-4.6284-17.781-6.9423-25.576l-4.2627-14.25 2.6794-3.5317c2.4358-3.2878 2.5843-4.1489 1.3398-7.9159-3.2619-9.874-11.682-14.293-40.313-21.07-17.162-4.0623-27.037-4.9935-44.454-4.0197v0.00185-0.00185 1e-3zm853.15 271.47v1e-3 7e-4 0.00184l2e-4 247.23-674.6-0.0012-0.36542-36.538c-0.2437-20.095-0.24383-36.537-0.24383-36.537 0.12188 0 6.4321 2.7337 14.006 5.968 14.957 6.3875 34.725 12.954 43.967 14.737 7.81 1.5063 15.979-1.0471 39.339-12.544 46.426-22.848 79.025-43.74 98.042-62.844 7.0477-7.0806 18.691-18.207 25.942-24.846 11.505-10.534 13.032-12.544 13.032-15.954 0-5.481 7.1727-10.516 21.07-14.737 12.167-3.695 26.072-12.293 33.371-20.582 2.5666-2.915 6.924-6.4911 9.7436-7.9166 8.0201-4.0549 9.0851-6.5726 8.1598-18.756-0.5363-7.06-0.3605-10.466 0.6091-11.083 1.71-1.0882 1.7726-7.3978 0.1216-10.352-0.6643-1.1885-5.2243-4.0472-10.352-6.3331-4.9806-2.2201-9.1344-4.3846-9.1345-4.8717-1.2e-4 -0.4872 1.3408-1.2131 2.9232-1.5835 4.142-0.96936 26.932-16.302 34.467-23.14 6.9582-6.3152 8.6241-9.6028 6.3331-12.422-2.4591-3.0265-6.2248-1.6087-29.108 10.961-11.705 6.4297-26.676 13.997-33.493 16.807-13.278 5.4726-13.872 6.1008-50.177 44.088-8.3916 8.7802-13.153 12.91-15.102 12.91-1.4613-5e-5 -9.8467 5.1407-18.634 11.448-11.065 7.9418-18.035 11.901-22.775 13.275-3.664 1.0622-9.0193 3.6452-11.692 5.6027-7.8016 5.7147-16.3 9.5838-26.063 11.936-6.9223 1.6672-10.342 3.3013-15.468 7.429-8.6365 6.9548-13.031 8.6184-21.679 8.4035-6.0892-0.1511-8.2819 0.4871-14.006 3.7754l-6.6985 3.7754-8.5254-8.5254c-4.628-4.7502-10.851-9.9675-13.884-11.692-14.748-8.3838-21.07-13.397-32.031-25.21l-11.814-12.666-4.3e-4 -143.23 1.2e-4 -143.23 674.72 0.00225 6e-4 247.24v0.0017-0.0017 1e-3zm-975.18 226.53v1e-3 7e-4 0.0018c4.7501 23.624 5.0353 29.964 2.1924 46.521-3.3682 19.616-1.9474 28.742 5.9678 38.73 2.3152 2.9216 3.6538 5.9675 3.6538 8.5251 0 2.0703-2.3918 14.382-5.3591 27.159-3.0004 12.92-6.768 30.313-8.2817 38.85-1.5311 8.6356-3.0447 15.59-3.4102 15.59-0.487 0-2.0953-4.9871-3.6537-11.083-2.5827-10.103-2.8118-12.545-2.0707-30.082 0.72056-17.051 0.6268-19.979-1.5831-26.916-2.1747-6.8262-2.6092-11.448-2.6794-37.268-0.05162-18.999 0.36133-30.206 1.2177-31.787 0.72686-1.342 1.9488-6.3332 2.6795-10.961 2.5575-16.198 7.6727-38.364 8.647-37.39 0.48733 0.4873 1.7052 5.115 2.6794 10.108v0.0017-0.0017 1e-3z"/> </g> <g fill-opacity=".45882"> <path d="m766.14 732.14-337.36-9e-4c-0.57281 0-1.0371 0.46414-1.0371 1.0369l-1.2e-4 143.23 4.3e-4 143.23c0 0.2627 0.09948 0.5154 0.27855 0.7073l11.814 12.666c11.036 11.894 17.452 16.951 32.275 25.404l0.00713 0.0042c2.9108 1.6303 9.0382 6.7798 13.648 11.511l0.00964 0.0096 8.5252 8.5256c0.19982 0.1997 0.46524 0.3037 0.73361 0.3037 0.17407 0 0.34947-0.0434 0.50897-0.1338l6.6986-3.7754 0.00738-0.0039c5.1787-2.9751 7.2745-3.6521 12.17-3.6518 0.4115 0 0.8429 0.0051 1.2983 0.0141h-6e-4c0.51954 0.0144 1.0282 0.0222 1.522 0.0222 8.0001 0 12.585-2.0376 20.827-8.6538l0.0033-0.0029c4.9903-4.0395 8.2557-5.6755 15.046-7.2239l0.0207-0.0048c9.8532-2.4637 18.506-6.2911 26.422-12.103h-2.5e-4c2.5662-1.8659 7.8036-4.3723 11.364-5.4433h-6.2e-4c4.9481-1.3953 12.027-5.5227 23.096-13.429l0.0045-0.0034c8.7348-6.3087 16.691-11.092 18.044-11.252h-0.01037c2.5232-0.00894 7.6802-4.7108 15.844-13.23l0.0014-0.00136c36.344-38.051 36.796-38.467 49.822-43.845 6.8782-2.8253 21.896-10.397 33.597-16.857 16.652-9.1234 22.896-12.187 25.852-12.187 0.9216 0 1.4282 0.3147 1.9479 0.9642l0.01037 0.01284c1.5874 1.9214 0.97207 4.4234-6.2327 10.996-7.5651 6.8312-30.155 21.991-34.005 22.897h2.6e-4c-1.3114 0.30276-2.7193 0.89333-3.3346 1.6167h-2.7e-4c-0.1594 0.18777-0.3879 0.5243-0.3879 0.9761 2e-4 0.4972 0.3286 0.8285 0.39085 0.8939v2.6e-4c0.86155 0.91014 4.9436 2.9869 9.3638 4.9272h-2e-4c5.2352 2.3695 9.4017 5.0108 9.8421 5.8478h2.6e-4l0.0311 0.05834c1.6616 2.8477 1.1389 8.3621 0.2135 8.9567h-2.3e-4c-0.1604 0.1023-0.29651 0.2257-0.41197 0.35925-1.1586 1.3429-1.1039 5.3839-0.6707 11.668l6.4e-4 0.0115c0.95566 11.943-0.07274 13.987-7.5898 17.745l-0.0159 0.0083c-2.9319 1.5296-7.416 5.1499-10.044 8.153-7.1662 8.1192-20.874 16.668-32.889 20.272l-0.0062 0.0024c-13.679 4.199-21.803 9.364-21.803 15.728 0 2.842-1.0709 4.4309-12.699 15.193h-3e-4c-7.3285 6.5967-18.903 17.806-25.97 24.873l-0.0022 0.0022c-18.874 18.995-51.387 39.76-97.765 62.645h-2.5e-4c-19.464 9.5298-28.151 12.854-34.79 12.854-1.3506 0-2.6177-0.1381-3.8832-0.3955l-0.01862-0.0031c-9.1424-1.6844-28.78-8.3435-43.74-14.668h-1.2e-4c-7.2346-3.1499-13.439-5.781-14.049-5.9868l-7.2e-4 -3e-4c-0.01838-0.0063-0.06391-0.0219-0.12415-0.0361-0.07831-0.0183-0.15826-0.0278-0.23833-0.0278h-0.00843c-0.5727 0-1.0371 0.4643-1.0371 1.0368 0 0.2635 0.00214 16.607 0.24396 36.547h-1.2e-4l0.3654 36.537c0.0057 0.5689 0.46846 1.0269 1.0371 1.0269h674.6c0.5725 0 1.0369-0.4644 1.0369-1.0376l-2e-4 -247.24-4e-4 -247.24c0-0.57285-0.4644-1.0371-1.0371-1.0371l-337.36-0.00114z"/> </g> </g> </svg>